<svg height="512" viewBox="0 0 60 52" width="512" xmlns="http://www.w3.org/2000/svg"><g id="Page-1" fill="none" fill-rule="evenodd"><g id="040---sync-error" fill="rgb(0,0,0)" fill-rule="nonzero"><path id="Shape" d="m47.625 38.627c.5019122-.8576303.5019122-1.9193697 0-2.777l-15.254-26.475c-.4866937-.85019956-1.3913521-1.37472958-2.371-1.37472958s-1.8843063.52453002-2.371 1.37472958l-15.255 26.474c-.5020908.8579397-.5020908 1.9200603 0 2.778.4835676.8525906 1.3898331 1.3776128 2.37 1.373h30.512c.9798098.0042505 1.8856078-.5207224 2.369-1.373zm-33.518-1c-.1418934-.2402825-.1418934-.5387175 0-.779l15.254-26.473c.1293613-.2314968.3738112-.3749244.639-.3749244s.5096387.1434276.639.3749244l15.255 26.473c.1418934.2402825.1418934.5387175 0 .779-.1287237.2309017-.3726426.3737301-.637.373h-30.513c-.2643574.0007301-.5082763-.1420983-.637-.373z"/><path id="Shape" d="m31 16h-2c-1.1045695 0-2 .8954305-2 2v8c0 1.1045695.8954305 2 2 2h2c1.1045695 0 2-.8954305 2-2v-8c0-1.1045695-.8954305-2-2-2zm-2 10v-8h2v8z"/><path id="Shape" d="m31 30h-2c-1.1045695 0-2 .8954305-2 2v2c0 1.1045695.8954305 2 2 2h2c1.1045695 0 2-.8954305 2-2v-2c0-1.1045695-.8954305-2-2-2zm-2 4v-2h2v2z"/><path id="Shape" d="m4.219 28.625c.18976835.2373126.47714263.375469.781.375469s.59123165-.1381564.781-.375469l4-5c.223291-.2790244.2807626-.655978.15076589-.9888658-.12999675-.3328879-.42771227-.5711366-.78100001-.6250001-.35328774-.0538634-.70847489.0848415-.93176588.3638659l-2.2 2.746c.4856283-12.8972935 11.074575-23.10650239 23.981-23.121.5522847 0 1-.44771525 1-1s-.4477153-1-1-1c-14.0296466.01783433-25.52026858 11.1528437-25.979 25.175l-2.24-2.8c-.22329099-.2790244-.57847814-.4177293-.93176588-.3638658-.35328773.0538634-.65100325.2921121-.781.625-.12999674.3328878-.07252511.7098414.15076588.9888658z"/><path id="Shape" d="m54.219 23.375-4 5c-.345178.4313344-.2753344 1.060822.156 1.406s1.060822.2753344 1.406-.156l2.2-2.746c-.4856283 12.8972935-11.074575 23.1065024-23.981 23.121-.5522847 0-1 .4477153-1 1s.4477153 1 1 1c14.0296466-.0178343 25.5202686-11.1528437 25.979-25.175l2.24 2.8c.345178.4313344.9746656.501178 1.406.156s.501178-.9746656.156-1.406l-4-5c-.1967485-.2257433-.4815505-.3553128-.781-.3553128s-.5842515.1295695-.781.3553128z"/></g></g></svg>