<svg id="Layer_5" enable-background="new 0 0 64 64" height="512" viewBox="0 0 64 64" width="512" xmlns="http://www.w3.org/2000/svg"><path d="m26 39h-22c-1.654 0-3 1.346-3 3v14c0 1.654 1.346 3 3 3h5v2h-2v2h16v-2h-2v-2h5c1.654 0 3-1.346 3-3v-14c0-1.654-1.346-3-3-3zm-22 2h22c.551 0 1 .449 1 1v11h-24v-11c0-.551.449-1 1-1zm15 20h-8v-2h8zm7-4h-22c-.551 0-1-.449-1-1v-1h24v1c0 .551-.449 1-1 1z"/><path d="m23 49h2v2h-2z"/><path d="m19 49h2v2h-2z"/><path d="m15 49h2v2h-2z"/><path d="m60 1h-10c-1.654 0-3 1.346-3 3v18c0 1.654 1.346 3 3 3h10c1.654 0 3-1.346 3-3v-18c0-1.654-1.346-3-3-3zm-10 2h10c.551 0 1 .449 1 1v1h-12v-1c0-.551.449-1 1-1zm11 4v12h-12v-12zm-1 16h-10c-.551 0-1-.449-1-1v-1h12v1c0 .551-.449 1-1 1z"/><path d="m46.079 44h5.209c-2.199 7.603-9.279 13-17.288 13h-1v6h1c11.395 0 21.134-7.94 23.471-19h5.295l-7.702-12.836zm9.727-2-.145.827c-1.79 10.2-10.395 17.691-20.661 18.15v-2.003c8.944-.453 16.656-6.943 18.548-15.765l.26-1.209h-3.888l5.015-7.164 4.299 7.164z"/><path d="m17.921 20h-5.205c2.199-7.603 9.277-13 17.284-13h1v-6h-1c-11.396 0-21.136 7.94-23.474 19h-5.292l7.702 12.836zm-9.73 2 .145-.827c1.79-10.2 10.396-17.692 20.664-18.151v2.003c-8.942.453-16.652 6.942-18.544 15.765l-.26 1.21h3.883l-5.015 7.164-4.298-7.164z"/><path d="m19 24c0 .362.025.723.068 1.08-2.866.45-5.068 2.929-5.068 5.92 0 3.309 2.691 6 6 6h24c3.309 0 6-2.691 6-6 0-3.065-2.311-5.596-5.281-5.953-.854-2.967-3.558-5.047-6.719-5.047-.621 0-1.231.081-1.824.242-1.454-3.173-4.623-5.242-8.176-5.242-4.962 0-9 4.038-9 9zm15.647-2.184.343 1.045 1.008-.441c.637-.279 1.31-.42 2.002-.42 2.096 0 3.904 1.284 4.642 3.161-2.656.618-4.642 2.998-4.642 5.839h2c0-2.206 1.794-4 4-4s4 1.794 4 4-1.794 4-4 4h-24c-2.206 0-4-1.794-4-4s1.794-4 4-4 4 1.794 4 4h2c0-2.933-2.117-5.377-4.903-5.895-.058-.364-.097-.732-.097-1.105 0-3.86 3.14-7 7-7 3.03 0 5.702 1.936 6.647 4.816z"/></svg>